<?xml version="1.0" encoding="UTF-8" standalone="no"?><!-- Created with Inkscape (http://www.inkscape.org/) --><svg xmlns="http://www.w3.org/2000/svg" xmlns:cc="http://creativecommons.org/ns#" xmlns:dc="http://purl.org/dc/elements/1.1/" xmlns:inkscape="http://www.inkscape.org/namespaces/inkscape" xmlns:rdf="http://www.w3.org/1999/02/22-rdf-syntax-ns#" xmlns:sodipodi="http://sodipodi.sourceforge.net/DTD/sodipodi-0.dtd" xmlns:svg="http://www.w3.org/2000/svg" height="100.39426" id="svg3405" inkscape:version="0.91 r13725" sodipodi:docname="fellow_logo.svg" version="1.1" viewBox="0 0 326.82562 100.39426" width="326.82562" xml:space="preserve">
  <metadata id="metadata3411"><rdf:RDF><cc:Work rdf:about=""><dc:format>image/svg+xml</dc:format><dc:type rdf:resource="http://purl.org/dc/dcmitype/StillImage"/><dc:title/></cc:Work></rdf:RDF>
  </metadata>
  <defs id="defs3409"/>
  <sodipodi:namedview bordercolor="#666666" borderopacity="1" fit-margin-bottom="0" fit-margin-left="0" fit-margin-right="0" fit-margin-top="0" gridtolerance="10" guidetolerance="10" id="namedview3407" inkscape:current-layer="g3413" inkscape:cx="161.98796" inkscape:cy="50.197135" inkscape:pageopacity="0" inkscape:pageshadow="2" inkscape:window-height="829" inkscape:window-maximized="0" inkscape:window-width="1295" inkscape:window-x="154" inkscape:window-y="111" inkscape:zoom="0.70183356" objecttolerance="10" pagecolor="#ffffff" showgrid="false"/><g id="g3413" inkscape:groupmode="layer" inkscape:label="fellow_logo_CORE_blue_PMS" transform="matrix(1.25,0,0,-1.25,-361.26972,634.40857)"><g id="g3415" transform="translate(-171.19153,167.07635)"><g clip-path="url(#clipPath3419)" id="g3417" transform="matrix(0.31681932,0,0,0.31681932,403.71712,205.15424)"><g id="g3423" transform="translate(274.4361,303.1855)"><path d="M 0,0 C -11.109333,0 -22.218667,0 -33.328,0 -34.985,0 -36.328,-1.343 -36.328,-3 -36.328,-42.797333 -36.328,-82.594667 -36.328,-122.392 -36.328,-124.049 -37.671,-125.392 -39.328,-125.392 -52.13,-125.392 -64.932,-125.392 -77.734,-125.392 -79.391,-125.392 -80.734,-124.049 -80.734,-122.392 -80.734,-82.594667 -80.734,-42.797333 -80.734,-3 -80.734,-1.343 -82.077,0 -83.734,0 -86.866667,0 -89.999333,0 -93.132,0 -94.789,0 -96.132,1.343 -96.132,3 -96.132,14.157333 -96.132,25.314667 -96.132,36.472 -96.132,38.128 -94.789,39.472 -93.132,39.472 -89.999333,39.472 -86.866667,39.472 -83.734,39.472 -82.077,39.472 -80.734,40.815 -80.734,42.472 -80.734,48.277667 -80.734,54.083333 -80.734,59.889 -80.734,98.51 -60.147,123.86 -21.696,123.86 -0.607,123.86 14.481,118.159 26.667,110.561 27.997,109.732 28.477,108.029 27.763,106.634 22.736667,96.823333 17.710333,87.012667 12.684,77.202 11.933,75.736 10.147,75.158 8.672,75.891 1.088,79.659 -7.65,82.517 -16.932,82.517 -29.693,82.517 -36.328,74.691 -36.328,59.378 -36.328,53.742667 -36.328,48.107333 -36.328,42.472 -36.328,40.815 -34.985,39.472 -33.328,39.472 -22.218667,39.472 -11.109333,39.472 0,39.472 1.657,39.472 3,38.128 3,36.472 3,25.314667 3,14.157333 3,3 3,1.343 1.657,0 0,0" id="path3425" inkscape:connector-curvature="0" sodipodi:nodetypes="cssssssssssssssssccccsssssssc" style="fill:#0d316e;fill-opacity:1;fill-rule:nonzero;stroke:none"><animate attributeName="d" dur="20s" fill="freeze" values="M 0,0 C 0,0 0,0 0,0 0,0 0,0 0,0 0,0 0,0 0,0 0,0 0,0 0,0 0,0 0,0 0,0 0,0 0,0 0,0 0,0 0,0 0,0 0,0 0,0 0,0 0,0 0,0 0,0 0,0 0,0 0,0 0,0 0,0 0,0 0,0 0,0 0,0 0,0 0,0 0,0 0,0 0,0 0,0 0,0 0,0 0,0 0,0 0,0 0,0 0,0 0,0 0,0 0,0 0,0 0,0 0,0 0,0 0,0 0,0 0,0 0,0 0,0 0,0 0,0 0,0 0,0 0,0 0,0 0,0 0,0 0,0 0,0 0,0 0,0 0,0 0,0 0,0 0,0 0,0 0,0 0,0 0,0 0,0 0,0 0,0;&#10;M 0,0 C -11.109333,0 -22.218667,0 -33.328,0 -34.985,0 -36.328,-1.343 -36.328,-3 -36.328,-42.797333 -36.328,-82.594667 -36.328,-122.392 -36.328,-124.049 -37.671,-125.392 -39.328,-125.392 -52.13,-125.392 -64.932,-125.392 -77.734,-125.392 -79.391,-125.392 -80.734,-124.049 -80.734,-122.392 -80.734,-82.594667 -80.734,-42.797333 -80.734,-3 -80.734,-1.343 -82.077,0 -83.734,0 -86.866667,0 -89.999333,0 -93.132,0 -94.789,0 -96.132,1.343 -96.132,3 -96.132,14.157333 -96.132,25.314667 -96.132,36.472 -96.132,38.128 -94.789,39.472 -93.132,39.472 -89.999333,39.472 -86.866667,39.472 -83.734,39.472 -82.077,39.472 -80.734,40.815 -80.734,42.472 -80.734,48.277667 -80.734,54.083333 -80.734,59.889 -80.734,98.51 -60.147,123.86 -21.696,123.86 -0.607,123.86 14.481,118.159 26.667,110.561 27.997,109.732 28.477,108.029 27.763,106.634 22.736667,96.823333 17.710333,87.012667 12.684,77.202 11.933,75.736 10.147,75.158 8.672,75.891 1.088,79.659 -7.65,82.517 -16.932,82.517 -29.693,82.517 -36.328,74.691 -36.328,59.378 -36.328,53.742667 -36.328,48.107333 -36.328,42.472 -36.328,40.815 -34.985,39.472 -33.328,39.472 -22.218667,39.472 -11.109333,39.472 0,39.472 1.657,39.472 3,38.128 3,36.472 3,25.314667 3,14.157333 3,3 3,1.343 1.657,0 0,0"/></path></g><g id="g3427" transform="translate(327.1319,275.7931)"><path d="M 0,0 C 21.833667,0 43.667333,0 65.501,0 67.443,0 68.901,1.826 68.419,3.707 63.608,22.487 51.259,33.007 33.35,33.007 13.717,33.007 1.721,21.926 -2.919,3.697 -3.397,1.818 -1.939,0 0,0 M 113.825,-15.312 C 113.825,-19.31 113.616,-23.933 113.281,-27.548 113.137,-29.097 111.847,-30.285 110.292,-30.285 73.486667,-30.285 36.681333,-30.285 -0.124,-30.285 -2.112,-30.285 -3.536,-32.182 -3.016,-34.1 2.704,-55.216 18.68,-64.482 38.454,-64.482 51.902,-64.482 66.404,-59.36 77.992,-50.392 79.227,-49.437 80.986,-49.59 82.037,-50.744 89.398,-58.826667 96.759,-66.909333 104.12,-74.992 105.262,-76.247 105.135,-78.199 103.847,-79.304 85.499,-95.054 62.5,-102.253 35.902,-102.253 -14.629,-102.253 -49.677,-67.885 -49.677,-15.993 -49.677,35.899 -15.65,71.288 33.69,71.288 81.158,71.288 113.655,36.069 113.825,-15.312" id="path3429" inkscape:connector-curvature="0" sodipodi:nodetypes="cscsccccsscsccccsssc" style="fill:#0d316e;fill-opacity:1;fill-rule:nonzero;stroke:none"><animate attributeName="d" dur="20s" fill="freeze" values="M 0,0 C 0,0 0,0 0,0 0,0 0,0 0,0 0,0 0,0 0,0 0,0 0,0 0,0 0,0 0,0 0,0 M 113.825,-15.312 C 113.825,-15.312 113.825,-15.312 113.825,-15.312 113.825,-15.312 113.825,-15.312 113.825,-15.312 113.825,-15.312 113.825,-15.312 113.825,-15.312 113.825,-15.312 113.825,-15.312 113.825,-15.312 113.825,-15.312 113.825,-15.312 113.825,-15.312 113.825,-15.312 113.825,-15.312 113.825,-15.312 113.825,-15.312 113.825,-15.312 113.825,-15.312 113.825,-15.312 113.825,-15.312 113.825,-15.312 113.825,-15.312 113.825,-15.312 113.825,-15.312 113.825,-15.312 113.825,-15.312 113.825,-15.312 113.825,-15.312 113.825,-15.312 113.825,-15.312 113.825,-15.312 113.825,-15.312 113.825,-15.312 113.825,-15.312 113.825,-15.312 113.825,-15.312;&#10;M 0,0 C 21.833667,0 43.667333,0 65.501,0 67.443,0 68.901,1.826 68.419,3.707 63.608,22.487 51.259,33.007 33.35,33.007 13.717,33.007 1.721,21.926 -2.919,3.697 -3.397,1.818 -1.939,0 0,0 M 113.825,-15.312 C 113.825,-19.31 113.616,-23.933 113.281,-27.548 113.137,-29.097 111.847,-30.285 110.292,-30.285 73.486667,-30.285 36.681333,-30.285 -0.124,-30.285 -2.112,-30.285 -3.536,-32.182 -3.016,-34.1 2.704,-55.216 18.68,-64.482 38.454,-64.482 51.902,-64.482 66.404,-59.36 77.992,-50.392 79.227,-49.437 80.986,-49.59 82.037,-50.744 89.398,-58.826667 96.759,-66.909333 104.12,-74.992 105.262,-76.247 105.135,-78.199 103.847,-79.304 85.499,-95.054 62.5,-102.253 35.902,-102.253 -14.629,-102.253 -49.677,-67.885 -49.677,-15.993 -49.677,35.899 -15.65,71.288 33.69,71.288 81.158,71.288 113.655,36.069 113.825,-15.312"/></path></g><g id="g3431" transform="translate(489.3092,404.7406)"><path d="M 0,0 C 1.6116667,0 3.2233333,0 4.835,0 6.492,0 7.835,1.343 7.835,3 7.835,7.0173333 7.835,11.034667 7.835,15.052 7.835,16.709 6.492,18.052 4.835,18.052 -7.967,18.052 -20.769,18.052 -33.571,18.052 -35.228,18.052 -36.571,16.709 -36.571,15.052 -36.571,-64.614333 -36.571,-144.28067 -36.571,-223.947 -36.571,-225.604 -35.228,-226.947 -33.571,-226.947 -24.380667,-226.947 -15.190333,-226.947 -6,-226.947 -4.343,-226.947 -3,-225.604 -3,-223.947 -3,-150.298 -3,-76.649 -3,-3 -3,-1.343 -1.657,0 0,0" id="path3433" inkscape:connector-curvature="0" sodipodi:nodetypes="csssssssssssc" style="fill:#0d316e;fill-opacity:1;fill-rule:nonzero;stroke:none"><animate attributeName="d" dur="20s" fill="freeze" values="M 0,0 C 0,0 0,0 0,0 0,0 0,0 0,0 0,0 0,0 0,0 0,0 0,0 0,0 0,0 0,0 0,0 0,0 0,0 0,0 0,0 0,0 0,0 0,0 0,0 0,0 0,0 0,0 0,0 0,0 0,0 0,0 0,0 0,0 0,0 0,0 0,0 0,0;&#10;M 0,0 C 1.6116667,0 3.2233333,0 4.835,0 6.492,0 7.835,1.343 7.835,3 7.835,7.0173333 7.835,11.034667 7.835,15.052 7.835,16.709 6.492,18.052 4.835,18.052 -7.967,18.052 -20.769,18.052 -33.571,18.052 -35.228,18.052 -36.571,16.709 -36.571,15.052 -36.571,-64.614333 -36.571,-144.28067 -36.571,-223.947 -36.571,-225.604 -35.228,-226.947 -33.571,-226.947 -24.380667,-226.947 -15.190333,-226.947 -6,-226.947 -4.343,-226.947 -3,-225.604 -3,-223.947 -3,-150.298 -3,-76.649 -3,-3 -3,-1.343 -1.657,0 0,0"/></path></g><g id="g3435" transform="translate(538.5506,177.7935)"><path d="M 0,0 C -12.802,0 -25.604,0 -38.406,0 -40.063,0 -41.406,1.343 -41.406,3 -41.406,72.571333 -41.406,142.14267 -41.406,211.714 -41.406,213.371 -40.063,214.714 -38.406,214.714 -25.604,214.714 -12.802,214.714 0,214.714 1.657,214.714 3,213.371 3,211.714 3,142.14267 3,72.571333 3,3 3,1.343 1.657,0 0,0" id="path3437" inkscape:connector-curvature="0" sodipodi:nodetypes="csssssssc" style="fill:#0d316e;fill-opacity:1;fill-rule:nonzero;stroke:none"><animate attributeName="d" dur="20s" fill="freeze" values="M 0,0 C 0,0 0,0 0,0 0,0 0,0 0,0 0,0 0,0 0,0 0,0 0,0 0,0 0,0 0,0 0,0 0,0 0,0 0,0 0,0 0,0 0,0 0,0 0,0 0,0;&#10;M 0,0 C -12.802,0 -25.604,0 -38.406,0 -40.063,0 -41.406,1.343 -41.406,3 -41.406,72.571333 -41.406,142.14267 -41.406,211.714 -41.406,213.371 -40.063,214.714 -38.406,214.714 -25.604,214.714 -12.802,214.714 0,214.714 1.657,214.714 3,213.371 3,211.714 3,142.14267 3,72.571333 3,3 3,1.343 1.657,0 0,0"/></path></g><g id="g3439" transform="translate(600.8782,260.3105)"><path d="M 0,0 C 0,-26.712 18.715,-45.427 43.725,-45.427 68.736,-45.427 87.621,-26.712 87.621,0 87.621,26.712 68.736,45.427 43.725,45.427 18.715,45.427 0,26.712 0,0 M 133.048,0 C 133.048,-49.68 95.107,-86.77 43.725,-86.77 -7.486,-86.77 -45.257,-49.68 -45.257,0 -45.257,49.68 -7.486,86.77 43.725,86.77 95.107,86.77 133.048,49.68 133.048,0" id="path3441" inkscape:connector-curvature="0" sodipodi:nodetypes="csssccsssc" style="fill:#0d316e;fill-opacity:1;fill-rule:nonzero;stroke:none"><animate attributeName="d" dur="20s" fill="freeze" values="M 0,0 C 0,0 0,0 0,0 0,0 0,0 0,0 0,0 0,0 0,0 0,0 0,0 0,0 M 133.048,0 C 133.048,0 133.048,0 133.048,0 133.048,0 133.048,0 133.048,0 133.048,0 133.048,0 133.048,0 133.048,0 133.048,0 133.048,0;&#10;M 0,0 C 0,-26.712 18.715,-45.427 43.725,-45.427 68.736,-45.427 87.621,-26.712 87.621,0 87.621,26.712 68.736,45.427 43.725,45.427 18.715,45.427 0,26.712 0,0 M 133.048,0 C 133.048,-49.68 95.107,-86.77 43.725,-86.77 -7.486,-86.77 -45.257,-49.68 -45.257,0 -45.257,49.68 -7.486,86.77 43.725,86.77 95.107,86.77 133.048,49.68 133.048,0"/></path></g><g id="g3443" transform="translate(925.7034,236.0799)"><path d="M 0,0 C 10.650667,34.818333 21.301333,69.636667 31.952,104.455 32.337,105.716 33.502,106.577 34.82,106.577 48.168333,106.577 61.516667,106.577 74.865,106.577 76.919,106.577 78.365,104.56 77.707,102.615 59.782333,49.660667 41.857667,-3.2936667 23.933,-56.248 23.521,-57.467 22.378,-58.286 21.091,-58.286 5.6323333,-58.286 -9.8263333,-58.286 -25.285,-58.286 -26.582,-58.286 -27.731,-57.454 -28.136,-56.222 -39.148667,-22.671333 -50.161333,10.879333 -61.174,44.43 -62.079,47.186 -65.98,47.181 -66.878,44.422 -77.786333,10.876667 -88.694667,-22.668667 -99.603,-56.214 -100.005,-57.45 -101.157,-58.286 -102.456,-58.286 -117.79967,-58.286 -133.14333,-58.286 -148.487,-58.286 -149.773,-58.286 -150.916,-57.467 -151.329,-56.248 -169.25333,-3.2936667 -187.17767,49.660667 -205.102,102.615 -205.761,104.56 -204.314,106.577 -202.261,106.577 -188.629,106.577 -174.997,106.577 -161.365,106.577 -160.046,106.577 -158.882,105.716 -158.496,104.454 -147.90667,69.821333 -137.31733,35.188667 -126.728,0.556 -125.869,-2.255 -121.899,-2.282 -121.002,0.517 -109.893,35.175667 -98.784,69.834333 -87.675,104.493 -87.277,105.735 -86.122,106.577 -84.818,106.577 -70.679,106.577 -56.54,106.577 -42.401,106.577 -41.1,106.577 -39.947,105.739 -39.547,104.501 -28.272333,69.652 -16.997667,34.803 -5.723,-0.046 -4.82,-2.838 -0.858,-2.806 0,0" id="path3445" inkscape:connector-curvature="0" sodipodi:nodetypes="ccssccssccccssccssccccssccc" style="fill:#0d316e;fill-opacity:1;fill-rule:nonzero;stroke:none"><animate attributeName="d" dur="20s" fill="freeze" values="M 0,0 C 0,0 0,0 0,0 0,0 0,0 0,0 0,0 0,0 0,0 0,0 0,0 0,0 0,0 0,0 0,0 0,0 0,0 0,0 0,0 0,0 0,0 0,0 0,0 0,0 0,0 0,0 0,0 0,0 0,0 0,0 0,0 0,0 0,0 0,0 0,0 0,0 0,0 0,0 0,0 0,0 0,0 0,0 0,0 0,0 0,0 0,0 0,0 0,0 0,0 0,0 0,0 0,0 0,0 0,0 0,0 0,0 0,0 0,0 0,0 0,0 0,0 0,0 0,0 0,0 0,0 0,0 0,0 0,0 0,0 0,0 0,0 0,0 0,0 0,0 0,0 0,0 0,0 0,0;&#10;M 0,0 C 10.650667,34.818333 21.301333,69.636667 31.952,104.455 32.337,105.716 33.502,106.577 34.82,106.577 48.168333,106.577 61.516667,106.577 74.865,106.577 76.919,106.577 78.365,104.56 77.707,102.615 59.782333,49.660667 41.857667,-3.2936667 23.933,-56.248 23.521,-57.467 22.378,-58.286 21.091,-58.286 5.6323333,-58.286 -9.8263333,-58.286 -25.285,-58.286 -26.582,-58.286 -27.731,-57.454 -28.136,-56.222 -39.148667,-22.671333 -50.161333,10.879333 -61.174,44.43 -62.079,47.186 -65.98,47.181 -66.878,44.422 -77.786333,10.876667 -88.694667,-22.668667 -99.603,-56.214 -100.005,-57.45 -101.157,-58.286 -102.456,-58.286 -117.79967,-58.286 -133.14333,-58.286 -148.487,-58.286 -149.773,-58.286 -150.916,-57.467 -151.329,-56.248 -169.25333,-3.2936667 -187.17767,49.660667 -205.102,102.615 -205.761,104.56 -204.314,106.577 -202.261,106.577 -188.629,106.577 -174.997,106.577 -161.365,106.577 -160.046,106.577 -158.882,105.716 -158.496,104.454 -147.90667,69.821333 -137.31733,35.188667 -126.728,0.556 -125.869,-2.255 -121.899,-2.282 -121.002,0.517 -109.893,35.175667 -98.784,69.834333 -87.675,104.493 -87.277,105.735 -86.122,106.577 -84.818,106.577 -70.679,106.577 -56.54,106.577 -42.401,106.577 -41.1,106.577 -39.947,105.739 -39.547,104.501 -28.272333,69.652 -16.997667,34.803 -5.723,-0.046 -4.82,-2.838 -0.858,-2.806 0,0"/></path></g></g></g></g></svg>